<svg width="195" height="17" viewBox="0 0 195 17" fill="none" xmlns="http://www.w3.org/2000/svg">
<path d="M9.265 1.287L5.491 8.495V13H3.859V8.512L0.085 1.287H1.87L4.726 7.084L7.582 1.287H9.265ZM13.3316 3.837C14.5896 3.837 15.5643 4.25633 16.2556 5.095C16.9583 5.93367 17.3096 7.07267 17.3096 8.512C17.3096 9.44133 17.1509 10.263 16.8336 10.977C16.5163 11.6797 16.0573 12.2293 15.4566 12.626C14.8559 13.0113 14.1419 13.204 13.3146 13.204C12.0566 13.204 11.0763 12.7847 10.3736 11.946C9.67092 11.1073 9.31959 9.96833 9.31959 8.529C9.31959 7.59967 9.47825 6.78367 9.79559 6.081C10.1129 5.367 10.5719 4.81733 11.1726 4.432C11.7733 4.03533 12.4929 3.837 13.3316 3.837ZM13.3316 5.095C11.7789 5.095 11.0026 6.23967 11.0026 8.529C11.0026 10.807 11.7733 11.946 13.3146 11.946C14.8559 11.946 15.6266 10.8013 15.6266 8.512C15.6266 6.234 14.8616 5.095 13.3316 5.095ZM26.5573 13H25.2143L25.0953 11.606C24.7553 12.1613 24.3643 12.5693 23.9223 12.83C23.4803 13.0793 22.942 13.204 22.3073 13.204C21.5253 13.204 20.9133 12.966 20.4713 12.49C20.0293 12.014 19.8083 11.3397 19.8083 10.467V4.041H21.3723V10.297C21.3723 10.909 21.48 11.3453 21.6953 11.606C21.9107 11.8553 22.262 11.98 22.7493 11.98C23.622 11.98 24.37 11.4643 24.9933 10.433V4.041H26.5573V13ZM33.6809 3.837C33.9982 3.837 34.2929 3.871 34.5649 3.939L34.2759 5.469C34.0039 5.401 33.7432 5.367 33.4939 5.367C32.9385 5.367 32.4909 5.571 32.1509 5.979C31.8109 6.387 31.5445 7.02167 31.3519 7.883V13H29.7879V4.041H31.1309L31.2839 5.86C31.5219 5.19133 31.8449 4.687 32.2529 4.347C32.6609 4.007 33.1369 3.837 33.6809 3.837ZM46.0975 6.812C46.9022 6.948 47.5538 7.23133 48.0525 7.662C48.5512 8.09267 48.8005 8.76133 48.8005 9.668C48.8005 11.8893 47.2535 13 44.1595 13H40.9295V1.287H43.7005C45.1852 1.287 46.3185 1.53067 47.1005 2.018C47.8938 2.50533 48.2905 3.24767 48.2905 4.245C48.2905 4.925 48.0752 5.49167 47.6445 5.945C47.2252 6.39833 46.7095 6.68733 46.0975 6.812ZM42.5445 2.562V6.251H44.3125C44.9925 6.251 45.5478 6.08667 45.9785 5.758C46.4205 5.42933 46.6415 4.96467 46.6415 4.364C46.6415 3.684 46.4092 3.21367 45.9445 2.953C45.4912 2.69233 44.7998 2.562 43.8705 2.562H42.5445ZM44.1595 11.708C45.1115 11.708 45.8368 11.5663 46.3355 11.283C46.8455 10.9997 47.1005 10.4613 47.1005 9.668C47.1005 8.89733 46.8568 8.342 46.3695 8.002C45.8822 7.662 45.2475 7.492 44.4655 7.492H42.5445V11.708H44.1595ZM57.9533 8.257C57.9533 8.51767 57.9419 8.784 57.9193 9.056H52.2073C52.2753 10.042 52.5246 10.7673 52.9553 11.232C53.3859 11.6967 53.9413 11.929 54.6213 11.929C55.0519 11.929 55.4486 11.8667 55.8113 11.742C56.1739 11.6173 56.5536 11.419 56.9503 11.147L57.6303 12.082C56.6783 12.83 55.6356 13.204 54.5023 13.204C53.2556 13.204 52.2809 12.796 51.5783 11.98C50.8869 11.164 50.5413 10.042 50.5413 8.614C50.5413 7.68467 50.6886 6.863 50.9833 6.149C51.2893 5.42367 51.7199 4.857 52.2753 4.449C52.8419 4.041 53.5049 3.837 54.2643 3.837C55.4543 3.837 56.3666 4.228 57.0013 5.01C57.6359 5.792 57.9533 6.87433 57.9533 8.257ZM56.4063 7.798C56.4063 6.914 56.2306 6.23967 55.8793 5.775C55.5279 5.31033 55.0009 5.078 54.2983 5.078C53.0176 5.078 52.3206 6.01867 52.2073 7.9H56.4063V7.798ZM66.3199 10.909C66.3199 11.2717 66.3823 11.5437 66.5069 11.725C66.6316 11.895 66.8186 12.0253 67.0679 12.116L66.7109 13.204C66.2463 13.1473 65.8723 13.017 65.5889 12.813C65.3056 12.609 65.0959 12.2917 64.9599 11.861C64.3593 12.7563 63.4696 13.204 62.2909 13.204C61.4069 13.204 60.7099 12.9547 60.1999 12.456C59.6899 11.9573 59.4349 11.3057 59.4349 10.501C59.4349 9.549 59.7749 8.818 60.4549 8.308C61.1463 7.798 62.1209 7.543 63.3789 7.543H64.7559V6.88C64.7559 6.24533 64.6029 5.792 64.2969 5.52C63.9909 5.248 63.5206 5.112 62.8859 5.112C62.2286 5.112 61.4239 5.27067 60.4719 5.588L60.0809 4.449C61.1916 4.041 62.2229 3.837 63.1749 3.837C64.2289 3.837 65.0166 4.09767 65.5379 4.619C66.0593 5.129 66.3199 5.86 66.3199 6.812V10.909ZM62.6479 12.031C63.5433 12.031 64.2459 11.5663 64.7559 10.637V8.58H63.5829C61.9283 8.58 61.1009 9.192 61.1009 10.416C61.1009 10.9487 61.2313 11.351 61.4919 11.623C61.7526 11.895 62.1379 12.031 62.6479 12.031ZM76.196 13H74.853L74.734 11.606C74.394 12.1613 74.003 12.5693 73.561 12.83C73.119 13.0793 72.5807 13.204 71.946 13.204C71.164 13.204 70.552 12.966 70.11 12.49C69.668 12.014 69.447 11.3397 69.447 10.467V4.041H71.011V10.297C71.011 10.909 71.1187 11.3453 71.334 11.606C71.5493 11.8553 71.9007 11.98 72.388 11.98C73.2607 11.98 74.0087 11.4643 74.632 10.433V4.041H76.196V13ZM83.9485 12.592C83.3592 13 82.6905 13.204 81.9425 13.204C81.1832 13.204 80.5882 12.9887 80.1575 12.558C79.7382 12.116 79.5285 11.4813 79.5285 10.654V5.248H77.9645V4.041H79.5285V2.018L81.0925 1.831V4.041H83.2175L83.0475 5.248H81.0925V10.586C81.0925 11.0507 81.1719 11.3907 81.3305 11.606C81.5005 11.81 81.7782 11.912 82.1635 11.912C82.5149 11.912 82.9115 11.793 83.3535 11.555L83.9485 12.592ZM89.0731 13.051C88.7218 14.0937 88.2288 14.9153 87.5941 15.516C86.9708 16.128 86.0754 16.4963 84.9081 16.621L84.7381 15.397C85.3274 15.295 85.7978 15.1477 86.1491 14.955C86.5004 14.7623 86.7781 14.513 86.9821 14.207C87.1974 13.9123 87.3958 13.51 87.5771 13H87.0501L84.0411 4.041H85.7071L88.1041 11.861L90.4501 4.041H92.0651L89.0731 13.051ZM100.052 1.287V13H98.4373V1.287H100.052ZM107.582 3.837C108.398 3.837 109.033 4.08067 109.486 4.568C109.951 5.05533 110.183 5.724 110.183 6.574V13H108.619V6.795C108.619 6.16033 108.5 5.71267 108.262 5.452C108.024 5.19133 107.673 5.061 107.208 5.061C106.732 5.061 106.313 5.197 105.95 5.469C105.587 5.741 105.247 6.132 104.93 6.642V13H103.366V4.041H104.709L104.845 5.367C105.162 4.891 105.553 4.517 106.018 4.245C106.494 3.973 107.015 3.837 107.582 3.837ZM125.476 1.287L121.702 8.495V13H120.07V8.512L116.296 1.287H118.081L120.937 7.084L123.793 1.287H125.476ZM129.543 3.837C130.801 3.837 131.775 4.25633 132.467 5.095C133.169 5.93367 133.521 7.07267 133.521 8.512C133.521 9.44133 133.362 10.263 133.045 10.977C132.727 11.6797 132.268 12.2293 131.668 12.626C131.067 13.0113 130.353 13.204 129.526 13.204C128.268 13.204 127.287 12.7847 126.585 11.946C125.882 11.1073 125.531 9.96833 125.531 8.529C125.531 7.59967 125.689 6.78367 126.007 6.081C126.324 5.367 126.783 4.81733 127.384 4.432C127.984 4.03533 128.704 3.837 129.543 3.837ZM129.543 5.095C127.99 5.095 127.214 6.23967 127.214 8.529C127.214 10.807 127.984 11.946 129.526 11.946C131.067 11.946 131.838 10.8013 131.838 8.512C131.838 6.234 131.073 5.095 129.543 5.095ZM142.768 13H141.425L141.306 11.606C140.966 12.1613 140.575 12.5693 140.133 12.83C139.691 13.0793 139.153 13.204 138.518 13.204C137.736 13.204 137.124 12.966 136.682 12.49C136.24 12.014 136.019 11.3397 136.019 10.467V4.041H137.583V10.297C137.583 10.909 137.691 11.3453 137.906 11.606C138.122 11.8553 138.473 11.98 138.96 11.98C139.833 11.98 140.581 11.4643 141.204 10.433V4.041H142.768V13ZM149.892 3.837C150.209 3.837 150.504 3.871 150.776 3.939L150.487 5.469C150.215 5.401 149.954 5.367 149.705 5.367C149.149 5.367 148.702 5.571 148.362 5.979C148.022 6.387 147.755 7.02167 147.563 7.883V13H145.999V4.041H147.342L147.495 5.86C147.733 5.19133 148.056 4.687 148.464 4.347C148.872 4.007 149.348 3.837 149.892 3.837ZM163.685 13V7.509H158.755V13H157.14V1.287H158.755V6.183H163.685V1.287H165.3V13H163.685ZM174.645 10.909C174.645 11.2717 174.707 11.5437 174.832 11.725C174.957 11.895 175.144 12.0253 175.393 12.116L175.036 13.204C174.571 13.1473 174.197 13.017 173.914 12.813C173.631 12.609 173.421 12.2917 173.285 11.861C172.684 12.7563 171.795 13.204 170.616 13.204C169.732 13.204 169.035 12.9547 168.525 12.456C168.015 11.9573 167.76 11.3057 167.76 10.501C167.76 9.549 168.1 8.818 168.78 8.308C169.471 7.798 170.446 7.543 171.704 7.543H173.081V6.88C173.081 6.24533 172.928 5.792 172.622 5.52C172.316 5.248 171.846 5.112 171.211 5.112C170.554 5.112 169.749 5.27067 168.797 5.588L168.406 4.449C169.517 4.041 170.548 3.837 171.5 3.837C172.554 3.837 173.342 4.09767 173.863 4.619C174.384 5.129 174.645 5.86 174.645 6.812V10.909ZM170.973 12.031C171.868 12.031 172.571 11.5663 173.081 10.637V8.58H171.908C170.253 8.58 169.426 9.192 169.426 10.416C169.426 10.9487 169.556 11.351 169.817 11.623C170.078 11.895 170.463 12.031 170.973 12.031ZM182.073 3.837C182.889 3.837 183.524 4.08067 183.977 4.568C184.442 5.05533 184.674 5.724 184.674 6.574V13H183.11V6.795C183.11 6.16033 182.991 5.71267 182.753 5.452C182.515 5.19133 182.164 5.061 181.699 5.061C181.223 5.061 180.804 5.197 180.441 5.469C180.079 5.741 179.739 6.132 179.421 6.642V13H177.857V4.041H179.2L179.336 5.367C179.654 4.891 180.045 4.517 180.509 4.245C180.985 3.973 181.507 3.837 182.073 3.837ZM194.754 0.437V13H193.377L193.224 11.759C192.929 12.2123 192.561 12.5693 192.119 12.83C191.677 13.0793 191.184 13.204 190.64 13.204C189.575 13.204 188.742 12.7847 188.141 11.946C187.552 11.1073 187.257 9.97967 187.257 8.563C187.257 7.645 187.399 6.829 187.682 6.115C187.965 5.401 188.373 4.84567 188.906 4.449C189.439 4.041 190.062 3.837 190.776 3.837C191.694 3.837 192.499 4.20533 193.19 4.942V0.249999L194.754 0.437ZM190.98 11.963C191.456 11.963 191.864 11.8553 192.204 11.64C192.544 11.4133 192.873 11.079 193.19 10.637V6.251C192.895 5.86567 192.578 5.57667 192.238 5.384C191.909 5.18 191.535 5.078 191.116 5.078C190.425 5.078 189.886 5.367 189.501 5.945C189.127 6.523 188.94 7.38433 188.94 8.529C188.94 9.685 189.116 10.5463 189.467 11.113C189.818 11.6797 190.323 11.963 190.98 11.963Z" fill="black"/>
</svg>
