<?xml version="1.0" encoding="UTF-8"?>
<!DOCTYPE svg PUBLIC "-//W3C//DTD SVG 1.1//EN" "http://www.w3.org/Graphics/SVG/1.1/DTD/svg11.dtd">
<svg xmlns="http://www.w3.org/2000/svg" version="1.1" width="930px" height="930px" style="shape-rendering:geometricPrecision; text-rendering:geometricPrecision; image-rendering:optimizeQuality; fill-rule:evenodd; clip-rule:evenodd" xmlns:xlink="http://www.w3.org/1999/xlink">
<g><path style="opacity:1" fill="#c0226d" d="M 289.5,113.5 C 292.187,113.336 294.854,113.503 297.5,114C 332.543,145.958 348.377,185.791 345,233.5C 341.907,262.114 333.573,289.114 320,314.5C 304.947,341.943 286.947,367.276 266,390.5C 240.598,412.568 217.265,436.568 196,462.5C 136.726,538.434 125.726,621.1 163,710.5C 168.97,724.702 174.47,738.702 179.5,752.5C 134.351,711.109 103.184,660.776 86,601.5C 67.0198,525.416 84.0198,458.75 137,401.5C 189.275,352.933 230.275,296.266 260,231.5C 276.104,193.749 285.938,154.416 289.5,113.5 Z"/></g>
<g><path style="opacity:1" fill="#bf226c" d="M 360.5,117.5 C 386.113,146.621 409.28,177.621 430,210.5C 451.463,246.22 461.463,284.886 460,326.5C 459.428,333.767 458.261,340.934 456.5,348C 467.361,359.86 477.861,372.027 488,384.5C 494.136,391.94 497.969,400.44 499.5,410C 499.117,415.099 497.117,419.433 493.5,423C 488.224,425.888 483.391,429.388 479,433.5C 477.664,436.009 476.83,438.676 476.5,441.5C 477.77,446.044 479.603,450.377 482,454.5C 487.092,460.684 490.592,467.684 492.5,475.5C 491.278,483.944 487.445,490.944 481,496.5C 480.333,502.5 480.333,508.5 481,514.5C 494.931,562.247 477.264,581.913 428,573.5C 393.496,573.143 359.996,578.643 327.5,590C 281.176,609.15 264.676,642.983 278,691.5C 293.064,717.133 315.564,731.3 345.5,734C 373.212,736.407 400.545,734.073 427.5,727C 455.696,719.601 483.363,710.601 510.5,700C 534.248,690.195 557.915,680.195 581.5,670C 624.06,655.443 667.727,646.11 712.5,642C 737.847,639.734 762.514,642.734 786.5,651C 817.701,664.519 834.868,688.352 838,722.5C 838.5,732.494 838.666,742.494 838.5,752.5C 744.032,729.621 650.032,731.454 556.5,758C 517.92,769.527 479.586,781.86 441.5,795C 413.931,804.477 385.598,809.644 356.5,810.5C 327,810.722 300.333,802.222 276.5,785C 243.542,758.713 218.042,726.546 200,688.5C 186.614,649.369 184.947,609.702 195,569.5C 207.488,521.434 229.822,478.768 262,441.5C 277.304,425.195 292.971,409.195 309,393.5C 351.356,344.292 372.523,286.958 372.5,221.5C 371.96,208.813 371.126,196.147 370,183.5C 365.989,161.613 362.822,139.613 360.5,117.5 Z"/></g>
<g><path style="opacity:1" fill="#d9ced8" d="M 375.5,302.5 C 377.337,302.639 377.67,303.306 376.5,304.5C 375.702,304.043 375.369,303.376 375.5,302.5 Z"/></g>
</svg>
