<svg 
          width="2545" 
          height="390" fill="none" 
          xmlns="http://www.w3.org/2000/svg">
          <path d="M 0 8.757731797123341e-30 C 44.96492980337479 -4.030729469254558e-14 160.37395784634916 126.21863003774862 287.77383090186015 126.21863003774871 C 415.1737039573711 126.2186300377488 529.0841786893574 4.030729469254559e-14 662.4793398886571 8.757731797123341e-30 C 795.8745010879569 -4.030729469254558e-14 806.3661638587502 126.2186300377488 972.735409848888 126.21863003774871 C 1139.104655839026 126.21863003774862 1293.4833255415863 8.757731797123341e-30 1405.8949782376253 8.757731797123341e-30 C 1518.3066309336643 8.757731797123341e-30 1720.6478802290465 171.60060937716398 1849.5465753205046 126.21863003774871 C 1978.4452704119628 80.83665069833344 2036.899329813903 4.030729469254559e-14 2138.819228258312 8.757731797123341e-30 C 2240.7391267027206 -4.030729469254558e-14 2443.0802845172657 201.3811483705553 2545 126.21863003774871 L 2545 390 L 0 390 L 0 8.757731797123341e-30 Z" fill="rgb(192.00000375509262,34.00000177323818,109.00000110268593)"/>
        </svg>