<svg 
          width="1969" 
          height="302" fill="none" 
          xmlns="http://www.w3.org/2000/svg">
          <path d="M 0 7.980138772012424e-11 C 34.78818893432617 7.9770175406439e-11 124.0771484375 97.73852539062494 222.64309692382812 97.738525390625 C 321.20904541015625 97.73852539062506 409.33856201171875 7.983260003380948e-11 512.5429077148438 7.980138772012424e-11 C 615.7472534179688 7.9770175406439e-11 674.7844696044922 164.50000000000006 803.5 164.5 C 932.2155303955078 164.49999999999994 943.5 7.958078640513122e-11 1107.5 7.980138772012424e-11 C 1271.5 8.002198903511726e-11 1331.2202529907227 132.88046646118164 1430.94580078125 97.738525390625 C 1530.6713485717773 62.59658432006836 1575.8957824707031 7.983260003380948e-11 1654.74853515625 7.980138772012424e-11 C 1733.6012878417969 7.9770175406439e-11 1890.1473846435547 155.9412956237793 1969 97.738525390625 L 1969 302 L 0 302 L 0 7.980138772012424e-11 Z" fill="rgb(192.00000375509262,34.00000177323818,109.00000110268593)"/>
        </svg>