<svg width="390" height="302" viewBox="0 0 390 302" fill="none" xmlns="http://www.w3.org/2000/svg">
<path d="M-325.226 126.219C-452.626 126.219 -568.035 0 -613 0V390H1932V126.219C1830.08 201.381 1627.74 0 1525.82 0C1423.9 0 1365.45 80.8367 1236.55 126.219C1107.65 171.601 905.307 0 792.895 0C680.483 0 526.105 126.219 359.735 126.219C193.366 126.219 182.875 0 49.4794 0C-83.9158 0 -197.826 126.219 -325.226 126.219Z" fill="#C0226D"/>
<path d="M-325.226 126.219C-452.626 126.219 -568.035 0 -613 0V390H1932V126.219C1830.08 201.381 1627.74 0 1525.82 0C1423.9 0 1365.45 80.8367 1236.55 126.219C1107.65 171.601 905.307 0 792.895 0C680.483 0 526.105 126.219 359.735 126.219C193.366 126.219 182.875 0 49.4794 0C-83.9158 0 -197.826 126.219 -325.226 126.219Z" fill="black" fill-opacity="0.2"/>
</svg>
