<svg id="Layer_1" data-name="Layer 1" xmlns="http://www.w3.org/2000/svg" viewBox="0 0 96 96"><path d="M59.68,89.83H21.48a8.38,8.38,0,0,1-8.37-8.38V19.16a8.38,8.38,0,0,1,8.37-8.38h6.24a1,1,0,0,1,0,2H21.48a6.38,6.38,0,0,0-6.37,6.38V81.45a6.38,6.38,0,0,0,6.37,6.38h38.2a6.39,6.39,0,0,0,6.38-6.38V19.16a6.39,6.39,0,0,0-6.38-6.38H53.44a1,1,0,0,1,0-2h6.24a8.39,8.39,0,0,1,8.38,8.38V81.45A8.39,8.39,0,0,1,59.68,89.83Z"/><path d="M59.52,45.35H21.64a3,3,0,0,1-3-3V26.83a3,3,0,0,1,3-3H59.52a3,3,0,0,1,3,3V42.35A3,3,0,0,1,59.52,45.35ZM21.64,25.83a1,1,0,0,0-1,1V42.35a1,1,0,0,0,1,1H59.52a1,1,0,0,0,1-1V26.83a1,1,0,0,0-1-1Z"/><path d="M27.72,40.51H24.77a1,1,0,0,1,0-2h2.95a1,1,0,0,1,0,2Z"/><path d="M36.69,40.51H33.74a1,1,0,0,1,0-2h2.95a1,1,0,0,1,0,2Z"/><path d="M45.66,40.51H42.71a1,1,0,0,1,0-2h2.95a1,1,0,0,1,0,2Z"/><path d="M28.54,58.82H25.37a3.83,3.83,0,1,1,0-7.66h3.17a3.83,3.83,0,0,1,0,7.66Zm-3.17-5.66a1.83,1.83,0,0,0,0,3.66h3.17a1.83,1.83,0,0,0,0-3.66Z"/><path d="M42.17,58.82H39a3.83,3.83,0,0,1,0-7.66h3.18a3.83,3.83,0,0,1,0,7.66ZM39,53.16a1.83,1.83,0,0,0,0,3.66h3.18a1.83,1.83,0,0,0,0-3.66Z"/><path d="M55.79,58.82H52.62a3.83,3.83,0,0,1,0-7.66h3.17a3.83,3.83,0,0,1,0,7.66Zm-3.17-5.66a1.83,1.83,0,0,0,0,3.66h3.17a1.83,1.83,0,0,0,0-3.66Z"/><path d="M28.54,69.65H25.37a3.83,3.83,0,0,1,0-7.66h3.17a3.83,3.83,0,1,1,0,7.66ZM25.37,64a1.83,1.83,0,1,0,0,3.66h3.17a1.83,1.83,0,1,0,0-3.66Z"/><path d="M42.17,69.65H39A3.83,3.83,0,1,1,39,62h3.18a3.83,3.83,0,1,1,0,7.66ZM39,64a1.83,1.83,0,1,0,0,3.66h3.18a1.83,1.83,0,1,0,0-3.66Z"/><path d="M55.79,80.48H52.62a3.84,3.84,0,0,1-3.83-3.83V65.82A3.84,3.84,0,0,1,52.62,62h3.17a3.84,3.84,0,0,1,3.83,3.83V76.65A3.84,3.84,0,0,1,55.79,80.48ZM52.62,64a1.83,1.83,0,0,0-1.83,1.83V76.65a1.83,1.83,0,0,0,1.83,1.83h3.17a1.83,1.83,0,0,0,1.83-1.83V65.82A1.83,1.83,0,0,0,55.79,64Z"/><path d="M28.54,80.48H25.37a3.84,3.84,0,0,1,0-7.67h3.17a3.84,3.84,0,0,1,0,7.67Zm-3.17-5.67a1.84,1.84,0,0,0,0,3.67h3.17a1.84,1.84,0,0,0,0-3.67Z"/><path d="M42.17,80.48H39a3.84,3.84,0,0,1,0-7.67h3.18a3.84,3.84,0,0,1,0,7.67ZM39,74.81a1.84,1.84,0,0,0,0,3.67h3.18a1.84,1.84,0,0,0,0-3.67Z"/><path d="M77.19,79.39H67.06a1,1,0,0,1-1-1V29.28a1,1,0,0,1,1-1H77.19a5.7,5.7,0,0,1,5.7,5.7V73.69A5.7,5.7,0,0,1,77.19,79.39Zm-9.13-2h9.13a3.7,3.7,0,0,0,3.7-3.7V34a3.7,3.7,0,0,0-3.7-3.7H68.06Z"/><path d="M75.86,79.39a1,1,0,0,1-1-1V29.28a1,1,0,0,1,2,0V78.39A1,1,0,0,1,75.86,79.39Z"/><path d="M46.7,13.62H34.46a1,1,0,0,1,0-2H46.7a1,1,0,0,1,0,2Z"/><path d="M46.7,20.39H34.46a1,1,0,0,1,0-2H46.7a1,1,0,0,1,0,2Z"/><path d="M54.57,94h-28a3.69,3.69,0,0,1-3-1.5l-2.28-3.08a1,1,0,0,1-.09-1,1,1,0,0,1,.89-.55H59a1,1,0,0,1,.8,1.59L57.54,92.5A3.69,3.69,0,0,1,54.57,94ZM24.13,89.83l1.1,1.48a1.7,1.7,0,0,0,1.36.69h28a1.68,1.68,0,0,0,1.36-.69L57,89.83Z"/><path d="M53.44,25.84H27.72a1,1,0,0,1-1-1V3a1,1,0,0,1,.56-.9,1,1,0,0,1,1,.11L32,5.06l3.67-2.85a1,1,0,0,1,1.23,0l3.67,2.85,3.67-2.85a1,1,0,0,1,1.23,0l3.68,2.85,3.68-2.85a1,1,0,0,1,1.05-.11,1,1,0,0,1,.56.9V24.84A1,1,0,0,1,53.44,25.84Zm-24.72-2H52.44V5L49.76,7.11a1,1,0,0,1-1.22,0L44.86,4.26,41.18,7.11a1,1,0,0,1-1.22,0L36.28,4.27,32.61,7.11a1,1,0,0,1-1.22,0L28.72,5Z"/></svg>