<svg viewBox="0 0 368.7 292.4" xmlns="http://www.w3.org/2000/svg"><defs><style>.cls-1{fill:#fbbd00}</style></defs><g data-name="Capa 2" id="Capa_2"><g data-name="Capa 1" id="Capa_1-2"><path class="cls-1" d="m29 218 109 74 231-59-106-57-234 42z"/><path d="M144 88V37c0-11 4-28 22-31l9-2c20 0 26 16 26 28v51" style="stroke-width:8.58px;fill:none;stroke:#139334;stroke-miterlimit:10"/><path d="m157 159-33 6-19-13c-8-7-22-18-49-10h-1c-1 1-15 6-17 17-2 6 1 13 7 19l-45 8 99 66 11-3 151-25Zm-99 17-6-6c-4-3-5-6-5-9 1-5 9-9 12-10 22-6 33 3 40 9l11 7Z" style="fill:#020203;opacity:.15"/><path style="fill:#e2000f" d="m100 81-5 170 22-1 22 15 23-153 2-25-64-6z"/><path style="fill:#0094da" d="m137 97 2 168 165-36-16-157-151 25z"/><path class="cls-1" d="m267 57-2 8 23 7-151 25V87l-37-6 167-24z"/><path d="m179 106-1-60c0-14 4-33 25-38l11-2c22 0 29 19 29 33v61" style="stroke-width:10.01px;fill:none;stroke:#139334;stroke-miterlimit:10"/><path style="fill:#fff" d="m264 205-80 18-2-48 79-12 3 42z"/><path style="fill:#139334" d="m267 57 3 9-5-1 2-8z"/></g></g></svg>